Coordinates
version=1
nRows=13
nColumns=40
inDegrees=yes

Units are S.I. units (second, meters, Newtons, ...)
Angles are in degrees.

endheader
time	pelvis_tilt	pelvis_list	pelvis_rotation	pelvis_tx	pelvis_ty	pelvis_tz	hip_flexion_r	hip_adduction_r	hip_rotation_r	knee_angle_r	knee_angle_r_beta	ankle_angle_r	subtalar_angle_r	mtp_angle_r	hip_flexion_l	hip_adduction_l	hip_rotation_l	knee_angle_l	knee_angle_l_beta	ankle_angle_l	subtalar_angle_l	mtp_angle_l	lumbar_extension	lumbar_bending	lumbar_rotation	arm_flex_r	arm_add_r	arm_rot_r	elbow_flex_r	pro_sup_r	wrist_flex_r	wrist_dev_r	arm_flex_l	arm_add_l	arm_rot_l	elbow_flex_l	pro_sup_l	wrist_flex_l	wrist_dev_l
     43.52814286	     -5.86679050	     -6.32957455	      7.15461382	      0.98029274	      0.91690238	      0.55126525	      2.06700923	      6.90704081	    -17.64559212	     11.98248670	     11.98248670	     17.80620049	     -1.10088919	     -1.37448854	     31.13524347	     -9.79144530	      1.81733007	     23.59329616	     23.59329616	      5.14566928	     -9.81941183	      4.48763192	     -9.23196704	      3.34267755	      2.48129698	     62.38051127	    -24.60845647	     -8.78937229	     74.69263903	     44.91090344	      0.00000000	      0.00000000	    -20.45066348	     -8.33596333	      6.15134481	     29.45319609	     45.53197011	      0.00000000	      0.00000000
     43.54628571	     -5.98198922	     -6.56568984	      7.41166942	      0.98077113	      0.91560860	      0.54786682	      1.71900855	      7.00215698	    -17.76273955	     11.86950923	     11.86950923	     18.04553221	     -1.08937635	     -1.44151351	     31.42699169	     -9.71999573	      2.20821803	     24.52192800	     24.52192800	      5.04403857	    -10.29732771	      4.11254967	     -9.19963569	      3.52800547	      2.52231481	     62.80732567	    -24.46196652	     -8.85254723	     74.78241015	     44.91626408	      0.00000000	      0.00000000	    -20.12877509	     -8.13993226	      6.25849100	     29.46673853	     45.52369399	      0.00000000	      0.00000000
     43.56442857	     -6.11359035	     -6.77552176	      7.64265999	      0.98131416	      0.91445825	      0.54437103	      1.37801706	      7.05738212	    -17.92275901	     11.74126816	     11.74126816	     18.20703882	     -1.04478188	     -1.48294715	     31.71322013	     -9.57685950	      2.76264639	     25.44509861	     25.44509861	      4.98311172	    -10.97023045	      3.76285890	     -9.17433227	      3.62817167	      2.51737857	     63.06494570	    -24.22446440	     -8.98122297	     74.72838661	     44.93113509	      0.00000000	      0.00000000	    -19.60989659	     -7.95328698	      6.44400063	     29.37740741	     45.50896802	      0.00000000	      0.00000000
     43.58257143	     -6.15275666	     -6.84821664	      7.81486735	      0.98213017	      0.91367447	      0.54054764	      0.94386054	      6.93097174	    -17.99847863	     11.71422762	     11.71422762	     18.35953382	     -1.03149766	     -1.51064047	     31.85947281	     -9.31658628	      3.20045735	     26.44639248	     26.44639248	      5.14391608	    -11.60636893	      3.56369233	     -9.22015521	      3.67390128	      2.53151259	     63.08467522	    -24.07814845	     -9.05740929	     74.60864494	     44.94148411	      0.00000000	      0.00000000	    -19.00949406	     -7.88191435	      6.53313466	     29.43238547	     45.50772817	      0.00000000	      0.00000000
     43.60071429	     -6.22444749	     -6.92806094	      7.95554695	      0.98303127	      0.91310304	      0.53663833	      0.53550884	      6.79769250	    -18.08678868	     11.67427403	     11.67427403	     18.42040315	     -0.95996537	     -1.51339553	     31.99590677	     -9.03068131	      3.70470928	     27.38109418	     27.38109418	      5.38380530	    -12.31517285	      3.49633953	     -9.22482717	      3.71169501	      2.59766186	     62.95574009	    -23.92506984	     -9.13493951	     74.36696656	     44.95478056	      0.00000000	      0.00000000	    -18.28660111	     -7.83845084	      6.60821073	     29.54246417	     45.51033329	      0.00000000	      0.00000000
     43.61885714	     -6.33858149	     -7.02706198	      8.03714857	      0.98402345	      0.91271558	      0.53253459	      0.14540439	      6.64992830	    -18.25571897	     11.59049451	     11.59049451	     18.39822250	     -0.70234257	     -1.52494040	     32.11298250	     -8.68622422	      4.40767770	     28.23598408	     28.23598408	      5.73031297	    -13.34152138	      3.81269004	     -9.16514403	      3.84039322	      2.79185598	     62.76392344	    -23.88289782	     -9.37391788	     73.77449236	     44.98757749	      0.00000000	      0.00000000	    -17.46210385	     -7.83555660	      6.72483493	     29.61035908	     45.50994908	      0.00000000	      0.00000000
     43.63700000	     -6.46266389	     -7.02456184	      8.04681069	      0.98508941	      0.91269438	      0.52834798	     -0.23861353	      6.35182913	    -18.49249117	     11.54366003	     11.54366003	     18.29562153	     -0.21548979	     -1.59255877	     32.08548678	     -8.24791412	      5.01067931	     28.90513306	     28.90513306	      6.23147565	    -14.33175598	      4.67817350	     -9.07239957	      3.85191001	      3.08913019	     62.47312438	    -23.86984346	     -9.74542128	     72.68534149	     45.04428806	      0.00000000	      0.00000000	    -16.51454379	     -7.92488414	      6.88130342	     29.71592384	     45.50761116	      0.00000000	      0.00000000
     43.65514286	     -6.58630275	     -6.98733894	      7.94707167	      0.98626039	      0.91294432	      0.52421923	     -0.58457985	      5.98118696	    -18.69828877	     11.59730217	     11.59730217	     18.12184699	      0.32640390	     -1.71527730	     31.96379109	     -7.87951689	      5.31155198	     29.47517545	     29.47517545	      6.91357432	    -14.95360246	      5.67307796	     -8.96976270	      3.81110114	      3.33466618	     62.11500831	    -23.73345198	    -10.04942668	     71.37318372	     45.10649890	      0.00000000	      0.00000000	    -15.64641601	     -8.08847145	      7.00899974	     29.98962797	     45.50873134	      0.00000000	      0.00000000
     43.67328571	     -6.74911674	     -6.98571432	      7.77322330	      0.98748619	      0.91333639	      0.52012982	     -0.85216916	      5.65809991	    -18.61251500	     11.68607589	     11.68607589	     17.88336556	      0.44733217	     -1.66663914	     31.74177074	     -7.65266192	      5.31403423	     29.77863859	     29.77863859	      7.38292008	    -15.23381033	      5.59146767	     -8.90565597	      3.90325126	      3.41331558	     61.61572154	    -23.36380781	     -9.94147133	     71.05641629	     45.11157066	      0.00000000	      0.00000000	    -14.90757571	     -8.21491771	      6.99169385	     30.26604101	     45.52347123	      0.00000000	      0.00000000
     43.69142857	     -6.89206718	     -6.87623587	      7.56250084	      0.98856421	      0.91401616	      0.51586393	     -1.10157010	      5.10446620	    -19.00748465	     11.88365860	     11.88365860	     17.50593331	      1.39726162	     -2.42844971	     31.57023806	     -7.24393712	      5.42407489	     30.32849336	     30.32849336	      8.90163471	    -15.50938445	      8.80278516	     -8.72535571	      3.85593964	      3.30647524	     61.83313792	    -22.48929005	    -10.62034969	     67.08945112	     45.29705293	      0.00000000	      0.00000000	    -14.51520421	     -8.60223541	      7.21193611	     31.38322252	     45.52643233	      0.00000000	      0.00000000
     43.70957143	     -7.05862160	     -6.81869769	      7.28551808	      0.98963694	      0.91481627	      0.51169435	     -1.25287153	      4.60471475	    -19.17978602	     12.18462904	     12.18462904	     17.12022661	      2.01496803	     -2.85581435	     31.20645171	     -6.98607573	      5.30167229	     30.41883049	     30.41883049	      9.45313909	    -15.83793199	      9.39470903	     -8.60863523	      3.88031612	      3.44862741	     61.47315870	    -22.16005503	    -10.92206929	     64.89691082	     45.39448827	      0.00000000	      0.00000000	    -13.83687011	     -8.92783951	      7.11289939	     32.17058026	     45.57240212	      0.00000000	      0.00000000
     43.72771429	     -7.22663744	     -6.74039649	      6.96098210	      0.99063135	      0.91577596	      0.50752458	     -1.31675834	      4.07044624	    -19.13332601	     12.61764315	     12.61764315	     16.74652564	      2.33244919	     -3.03649970	     30.72906644	     -6.76196813	      5.00991702	     30.29890889	     30.29890889	      9.81116123	    -16.06825549	      9.51153397	     -8.52232429	      3.90814155	      3.85865698	     60.70542006	    -22.28988536	    -11.16986330	     63.26715674	     45.45910279	      0.00000000	      0.00000000	    -12.89565436	     -9.29580785	      6.95577394	     32.80228846	     45.61361515	      0.00000000	      0.00000000
     43.74585714	     -7.34995512	     -6.69456490	      6.62847898	      0.99152115	      0.91675968	      0.50332688	     -1.36477151	      3.51884139	    -19.35028034	     13.14291155	     13.14291155	     16.19031279	      2.94784362	     -3.90515501	     30.24047026	     -6.57557358	      4.71221894	     30.23184016	     30.23184016	     10.33724842	    -16.24611497	      9.98561832	     -8.41445228	      4.01230294	      3.57811514	     60.79690296	    -21.24557691	    -11.92705088	     59.37999934	     45.62691061	      0.00000000	      0.00000000	    -12.45142812	     -9.67534366	      6.86116546	     33.73973248	     45.65579809	      0.00000000	      0.00000000
